<svg width="21" height="23" viewBox="0 0 21 23" fill="none" xmlns="http://www.w3.org/2000/svg">
<g filter="url(#filter0_d_593_1928)">
<path d="M7.33594 17.7266H13.0078C13.6276 17.7266 14.1901 17.5911 14.6953 17.3203C15.2005 17.0547 15.6016 16.6797 15.8984 16.1953C16.2005 15.7161 16.3516 15.1562 16.3516 14.5156C16.3516 13.875 16.2005 13.3151 15.8984 12.8359C15.6016 12.3516 15.2005 11.9766 14.6953 11.7109C14.1901 11.4401 13.6276 11.3047 13.0078 11.3047H7.33594C6.71615 11.3047 6.15365 11.4401 5.64844 11.7109C5.14323 11.9766 4.73958 12.3516 4.4375 12.8359C4.14062 13.3151 3.99219 13.875 3.99219 14.5156C3.99219 15.1562 4.14062 15.7161 4.4375 16.1953C4.73958 16.6797 5.14323 17.0547 5.64844 17.3203C6.15365 17.5911 6.71615 17.7266 7.33594 17.7266ZM13.2109 16.5469C12.8359 16.5417 12.4948 16.4479 12.1875 16.2656C11.8802 16.0833 11.6354 15.8385 11.4531 15.5312C11.276 15.224 11.1875 14.8828 11.1875 14.5078C11.1875 14.138 11.276 13.7995 11.4531 13.4922C11.6354 13.1849 11.8802 12.9401 12.1875 12.7578C12.4948 12.5755 12.8359 12.4844 13.2109 12.4844C13.5859 12.4844 13.9271 12.5755 14.2344 12.7578C14.5469 12.9401 14.7943 13.1849 14.9766 13.4922C15.1589 13.7943 15.2474 14.1302 15.2422 14.5C15.2422 14.875 15.1484 15.2188 14.9609 15.5312C14.7786 15.8438 14.5339 16.0911 14.2266 16.2734C13.9245 16.4557 13.5859 16.5469 13.2109 16.5469ZM7.65625 10.1016H12.6953C13.362 10.1016 13.9714 9.95312 14.5234 9.65625C15.0807 9.35938 15.5234 8.94271 15.8516 8.40625C16.1849 7.86979 16.3516 7.2474 16.3516 6.53906C16.3516 5.83073 16.1849 5.20833 15.8516 4.67188C15.5234 4.13542 15.0807 3.71875 14.5234 3.42188C13.9714 3.125 13.362 2.97656 12.6953 2.97656H7.65625C6.98438 2.97656 6.36979 3.125 5.8125 3.42188C5.26042 3.71875 4.81771 4.13542 4.48438 4.67188C4.15625 5.20833 3.99219 5.83073 3.99219 6.53906C3.99219 7.2474 4.15625 7.86979 4.48438 8.40625C4.81771 8.94271 5.26042 9.35938 5.8125 9.65625C6.36979 9.95312 6.98438 10.1016 7.65625 10.1016ZM7.65625 8.92188C7.21875 8.92188 6.8099 8.82292 6.42969 8.625C6.05469 8.42188 5.75 8.14323 5.51562 7.78906C5.28646 7.42969 5.17188 7.01302 5.17188 6.53906C5.17188 6.0651 5.28646 5.65104 5.51562 5.29688C5.75 4.9375 6.05469 4.65885 6.42969 4.46094C6.8099 4.25781 7.21875 4.15625 7.65625 4.15625H12.6953C13.1276 4.15625 13.5312 4.25781 13.9062 4.46094C14.2865 4.65885 14.5911 4.9375 14.8203 5.29688C15.0547 5.65104 15.1719 6.0651 15.1719 6.53906C15.1719 7.01302 15.0547 7.42969 14.8203 7.78906C14.5911 8.14323 14.2865 8.42188 13.9062 8.625C13.5312 8.82292 13.1276 8.92188 12.6953 8.92188H7.65625ZM7.65625 8.39062C8 8.39583 8.3099 8.3151 8.58594 8.14844C8.86719 7.97656 9.09115 7.75 9.25781 7.46875C9.42969 7.18229 9.51562 6.86719 9.51562 6.52344C9.52083 6.17969 9.4401 5.86979 9.27344 5.59375C9.10677 5.3125 8.88021 5.09115 8.59375 4.92969C8.3125 4.76302 8 4.67969 7.65625 4.67969C7.3125 4.67969 7 4.76302 6.71875 4.92969C6.4375 5.09635 6.21354 5.32031 6.04688 5.60156C5.88542 5.88281 5.80469 6.19271 5.80469 6.53125C5.80469 6.875 5.88542 7.1875 6.04688 7.46875C6.21354 7.75 6.4375 7.97396 6.71875 8.14062C7 8.30729 7.3125 8.39062 7.65625 8.39062Z" fill="white" fill-opacity="0.9"/>
</g>
<defs>
<filter id="filter0_d_593_1928" x="-0.0078125" y="0.976562" width="20.3594" height="22.75" filterUnits="userSpaceOnUse" color-interpolation-filters="sRGB">
<feFlood flood-opacity="0" result="BackgroundImageFix"/>
<feColorMatrix in="SourceAlpha" type="matrix" values="0 0 0 0 0 0 0 0 0 0 0 0 0 0 0 0 0 0 127 0" result="hardAlpha"/>
<feOffset dy="2"/>
<feGaussianBlur stdDeviation="2"/>
<feColorMatrix type="matrix" values="0 0 0 0 0 0 0 0 0 0 0 0 0 0 0 0 0 0 0.15 0"/>
<feBlend mode="normal" in2="BackgroundImageFix" result="effect1_dropShadow_593_1928"/>
<feBlend mode="normal" in="SourceGraphic" in2="effect1_dropShadow_593_1928" result="shape"/>
</filter>
</defs>
</svg>
